<?xml version="1.0" encoding="UTF-8"?>
<svg width="1000" height="431.37" id="Layer_1" xmlns="http://www.w3.org/2000/svg" version="1.1" viewBox="-2.83 -2.83 289.13 124.72">
  <!-- Generator: Adobe Illustrator 29.7.1, SVG Export Plug-In . SVG Version: 2.1.1 Build 8)  -->
  <defs>
    <style>
      .st0 { fill: #151515; } .arc { fill: #e20d19; }
    </style>
  </defs>
  <path class="arc" d="M123.08.46c-9.36-1.69-18.71,1.34-26.53,7.68,5.98-3.48,12.65-4.93,19.32-3.73,18.22,3.28,29.54,25.05,25.29,48.63-4.25,23.58-22.44,40.04-40.66,36.76-5.25-.94-9.92-3.43-13.82-7.05,4.96,6.43,11.6,10.88,19.38,12.28,20.17,3.63,40.33-14.59,45.03-40.7,4.7-26.12-7.85-50.23-28.02-53.86"/>
  <g>
    <path class="st0" d="M9.31,55.08h4.7c4.25,0,7.12-3.31,7.12-8.33s-3.09-8.42-7.57-8.42h-4.25v16.75M13.75,30.99c10.17,0,16.88,6.23,16.88,15.68s-6.85,15.72-17.2,15.72H0v-31.39h13.75Z"/>
    <path class="st0" d="M62.03,49.12c0,8.33-5.69,13.66-14.65,13.66s-14.87-5.33-14.87-13.66v-18.14h9.32v18.14c0,3.63,2.46,5.87,5.6,5.87s5.29-2.2,5.29-5.87v-18.14h9.31v18.14"/>
    <polyline class="st0" points="87.57 62.38 74.27 44.91 74.27 62.38 65.71 62.38 65.71 30.99 73.68 30.99 86.98 48.54 86.98 30.99 95.49 30.99 95.49 62.38 87.57 62.38"/>
    <path class="st0" d="M114.58,40.3l-3.85,10.25h7.61l-3.76-10.25M108.13,57.36l-1.88,5.02h-9.58l13.39-31.39h9.59l12.94,31.39h-9.94l-1.84-5.02h-12.68Z"/>
  </g>
  <g>
    <path class="st0" d="M169.41,35.1l-6.99,15.9h14.07l-7.07-15.9M160.89,54.45l-3.49,7.93h-3.8l14.06-31.35h3.72l14.02,31.35h-3.9l-3.49-7.93h-17.11Z"/>
    <path class="st0" d="M213.92,49.48c0,8.15-4.93,13.07-13.12,13.07s-13.21-4.92-13.21-13.07v-18.45h3.58v18.45c0,6.09,3.67,9.63,9.63,9.63s9.54-3.54,9.54-9.63v-18.45h3.58v18.45"/>
    <polyline class="st0" points="231.13 34.48 231.13 62.38 227.55 62.38 227.55 34.48 217.33 34.48 217.33 31.03 241.38 31.03 241.38 34.48 231.13 34.48"/>
    <path class="st0" d="M257.73,27.14h-3.36l5.38-6.09,3.53,1.7-5.55,4.39M244.12,46.71c0,6.89,5.82,12.4,12.81,12.4s12.72-5.51,12.72-12.4-5.74-12.36-12.72-12.36-12.81,5.47-12.81,12.36ZM273.32,46.71c0,8.82-7.25,15.85-16.39,15.85s-16.44-7.02-16.44-15.85,7.25-15.77,16.44-15.77,16.39,6.94,16.39,15.77Z"/>
    <path class="st0" d="M279.35,59.57h.75c.49,0,.77-.25.77-.67s-.29-.64-.77-.64h-.75v1.31M280.81,59.98l.75,1.12h-.74l-.6-1h-.87v1h-.64v-3.38h1.39c.88,0,1.38.42,1.38,1.16,0,.53-.24.91-.68,1.1ZM282.82,59.51c0-1.53-1.21-2.78-2.79-2.78s-2.81,1.27-2.81,2.8,1.21,2.78,2.79,2.78,2.82-1.27,2.82-2.8ZM283.46,59.51c0,1.88-1.52,3.47-3.46,3.47s-3.43-1.57-3.43-3.45,1.5-3.47,3.45-3.47,3.44,1.56,3.44,3.45Z"/>
  </g>
  <rect class="st0" y="72.28" width="121.89" height="1.98"/>
  <rect class="st0" x="155.91" y="72.28" width="127.56" height="1.98"/>
  <g>
    <path class="st0" d="M3.44,116.11l-1.21,2.86H0l5.59-12.67h2.19l5.54,12.67h-2.28l-1.21-2.86H3.44ZM6.62,108.58l-2.39,5.63h4.78l-2.39-5.63Z"/>
    <path class="st0" d="M29.56,117.05h7.8v1.92h-10.69v-1.54l7.73-9.21h-7.49v-1.92h10.37v1.54l-7.71,9.21Z"/>
    <path class="st0" d="M71.5,116.11l-1.21,2.86h-2.23l5.59-12.67h2.19l5.54,12.67h-2.28l-1.21-2.86h-6.39ZM74.68,108.58l-2.39,5.63h4.78l-2.39-5.63Z"/>
    <path class="st0" d="M106.13,113.72c0,3.31-2.08,5.34-5.5,5.34s-5.52-2.03-5.52-5.34v-7.42h2.14v7.42c0,2.13,1.32,3.42,3.4,3.42s3.35-1.27,3.35-3.42v-7.42h2.14v7.42Z"/>
    <path class="st0" d="M126.48,108.21v10.75h-2.14v-10.75h-4v-1.92h10.15v1.92h-4.02Z"/>
    <path class="st0" d="M156.61,112.63c0,3.62-2.93,6.42-6.71,6.42s-6.71-2.8-6.71-6.42,2.93-6.39,6.71-6.39,6.71,2.77,6.71,6.39ZM145.35,112.63c0,2.52,2.08,4.51,4.56,4.51s4.51-1.99,4.51-4.51-2.03-4.47-4.51-4.47-4.56,1.95-4.56,4.47ZM150.44,104.92h-1.85l1.92-2.68,2.14.9-2.21,1.77Z"/>
    <path class="st0" d="M174.8,118.96l-5.05-12.67h2.3l3.91,10.3,3.94-10.3h2.23l-5.12,12.67h-2.21Z"/>
    <path class="st0" d="M197.42,116.11l-1.21,2.86h-2.23l5.59-12.67h2.19l5.54,12.67h-2.28l-1.21-2.86h-6.39ZM200.6,108.58l-2.39,5.63h4.78l-2.39-5.63ZM199.43,104.92l1.92-2.68,2.14.9-2.21,1.77h-1.85Z"/>
    <path class="st0" d="M227.36,115.13c-.18.02-.38.02-.58.02h-3v3.82h-2.14v-12.67h5.14c3.24,0,5.1,1.57,5.1,4.33,0,2.03-.94,3.46-2.62,4.11l2.84,4.24h-2.42l-2.32-3.84ZM226.78,113.23c1.95,0,3.08-.83,3.08-2.55s-1.12-2.46-3.08-2.46h-3v5.01h3Z"/>
    <path class="st0" d="M259.77,112.63c0,3.62-2.93,6.42-6.71,6.42s-6.71-2.8-6.71-6.42,2.93-6.39,6.71-6.39,6.71,2.77,6.71,6.39ZM248.51,112.63c0,2.52,2.08,4.51,4.56,4.51s4.51-1.99,4.51-4.51-2.03-4.47-4.51-4.47-4.56,1.95-4.56,4.47Z"/>
    <path class="st0" d="M283.3,107.51l-.89,1.88c-1.38-.83-2.75-1.18-3.71-1.18-1.25,0-2.06.47-2.06,1.32,0,2.77,6.84,1.29,6.82,5.85,0,2.26-1.99,3.66-4.78,3.66-1.99,0-3.87-.82-5.18-2.01l.92-1.84c1.3,1.19,2.93,1.84,4.29,1.84,1.48,0,2.37-.56,2.37-1.54,0-2.82-6.84-1.25-6.84-5.75,0-2.17,1.86-3.53,4.61-3.53,1.65,0,3.26.52,4.43,1.3Z"/>
  </g>
</svg>